<?xml version="1.0" encoding="utf-8"?>
<!-- Generator: Adobe Illustrator 27.0.0, SVG Export Plug-In . SVG Version: 6.00 Build 0)  -->
<svg version="1.1" id="Layer_1" xmlns="http://www.w3.org/2000/svg" xmlns:xlink="http://www.w3.org/1999/xlink" x="0px" y="0px"
	 viewBox="0 0 152.7 152.7" style="enable-background:new 0 0 152.7 152.7;" xml:space="preserve">
<style type="text/css">
	.st0{fill:#FFFFFF;}
</style>
<g>
	<g>
		<g>
			<path class="st0" d="M32.5,138.2c1,0.7,1.9,1.6,1.9,3.2c0,2.4-2,3.7-4.2,3.7c-0.9,0-1.9-0.2-2.6-0.6c-0.5-0.3-1-0.7-1-1.2
				s0.4-1.2,1-1.2c0.7,0,1.3,0.9,2.5,0.9c1,0,1.7-0.5,1.7-1.4s-0.8-1.4-1.5-1.8c-1.2-0.6-3.5-1.5-3.5-3.9c0-2.1,1.7-3.5,4-3.5
				c1.7,0,3.3,0.7,3.3,1.7c0,0.5-0.5,1.2-1.1,1.2s-1.2-0.7-2.3-0.7c-0.9,0-1.4,0.5-1.4,1.2C29.4,136.9,31.2,137.4,32.5,138.2z"/>
			<path class="st0" d="M42.6,132.4c3.9,0,6.4,2.7,6.4,6.4s-2.5,6.4-6.5,6.4c-3.9,0-6.4-2.7-6.4-6.4
				C36.2,135.1,38.7,132.4,42.6,132.4z M42.6,143c2.4,0,3.8-1.5,3.8-4.2s-1.5-4.2-3.8-4.2s-3.8,1.5-3.8,4.2
				C38.8,141.4,40.2,143,42.6,143z"/>
			<path class="st0" d="M54.1,143.6c0,0.4,0,0.8-0.2,1s-0.5,0.4-1,0.4s-0.8-0.2-1-0.4s-0.2-0.6-0.2-1v-10c0-0.6,0.4-1,1.3-1
				c0.9,0,1.3,0.4,1.8,1.1l5.5,7V134c0-0.4,0-0.8,0.2-1s0.5-0.4,1-0.4s0.8,0.2,1,0.4s0.2,0.6,0.2,1v10c0,0.7-0.4,1-1.2,1
				s-1.1-0.4-1.7-1.1l-5.7-7.2C54.1,136.7,54.1,143.6,54.1,143.6z"/>
			<path class="st0" d="M76.2,143c0,0.8-0.2,1.1-1.2,1.5c-0.9,0.3-2,0.6-3.2,0.6c-3.6,0-6.5-2.1-6.5-6.3c0-4.5,3.3-6.3,6.5-6.3
				c1.2,0,2.4,0.2,3.3,0.7c0.6,0.3,0.9,0.6,0.9,1.1s-0.4,1.3-1,1.3c-0.4,0-0.7-0.2-1.3-0.5s-1.2-0.4-2-0.4c-1.9,0-3.8,1.1-3.8,4
				c0,2.8,1.8,4.1,3.9,4.1c1.1,0,1.8-0.3,1.8-0.3V141c0-0.4,0-0.7,0.2-1c0.2-0.2,0.5-0.4,1.1-0.4c0.5,0,0.8,0.1,1.1,0.4
				c0.2,0.2,0.2,0.5,0.2,1V143z"/>
			<path class="st0" d="M85,142.6c0.4,0,0.7,0,1,0.2c0.2,0.2,0.4,0.5,0.4,0.9c0,0.5-0.1,0.8-0.4,0.9c-0.2,0.2-0.5,0.2-1,0.2h-4.8
				c-0.9,0-1.2-0.4-1.2-1.2v-9.7c0-0.4,0-0.8,0.2-1c0.2-0.3,0.6-0.4,1.1-0.4s0.9,0.1,1.1,0.4c0.2,0.2,0.2,0.6,0.2,1v8.7L85,142.6
				L85,142.6z"/>
			<path class="st0" d="M91.1,143.6c0,0.5,0,0.8-0.2,1c-0.2,0.3-0.5,0.4-1.1,0.4s-0.9-0.1-1.1-0.4c-0.2-0.2-0.2-0.6-0.2-1V134
				c0-0.4,0-0.8,0.2-1c0.2-0.3,0.5-0.4,1.1-0.4c0.5,0,0.9,0.1,1.1,0.4c0.2,0.2,0.2,0.6,0.2,1V143.6z"/>
			<path class="st0" d="M97.1,143.6c0,0.4,0,0.8-0.2,1s-0.5,0.4-1,0.4s-0.8-0.2-1-0.4s-0.2-0.6-0.2-1v-10c0-0.6,0.4-1,1.3-1
				s1.3,0.4,1.8,1.1l5.5,7V134c0-0.4,0-0.8,0.2-1s0.5-0.4,1-0.4s0.8,0.2,1,0.4s0.2,0.6,0.2,1v10c0,0.7-0.4,1-1.2,1
				c-0.8,0-1.1-0.4-1.7-1.1l-5.7-7.2L97.1,143.6L97.1,143.6z"/>
			<path class="st0" d="M111.6,137.3h2.3c0.4,0,0.7,0,1,0.2c0.2,0.2,0.4,0.4,0.4,0.9s-0.1,0.8-0.4,0.9c-0.2,0.2-0.5,0.2-1,0.2h-2.3
				v3.2h3.5c0.4,0,0.7,0,0.9,0.2s0.4,0.4,0.4,0.9s-0.2,0.8-0.4,0.9s-0.5,0.2-0.9,0.2h-4.7c-0.9,0-1.2-0.3-1.2-1.2v-9.8
				c0-0.9,0.3-1.2,1.2-1.2h4.3c0.4,0,0.7,0,0.9,0.2c0.2,0.2,0.4,0.4,0.4,0.9s-0.1,0.8-0.4,0.9c-0.2,0.2-0.5,0.2-0.9,0.2h-3v2.4
				H111.6z"/>
			<path class="st0" d="M124.1,138.2c1,0.7,1.9,1.6,1.9,3.2c0,2.4-2,3.7-4.2,3.7c-0.9,0-1.9-0.2-2.6-0.6c-0.5-0.3-1-0.7-1-1.2
				s0.4-1.2,1-1.2c0.7,0,1.3,0.9,2.5,0.9c1,0,1.7-0.5,1.7-1.4s-0.8-1.4-1.5-1.8c-1.2-0.6-3.5-1.5-3.5-3.9c0-2.1,1.7-3.5,4-3.5
				c1.7,0,3.3,0.7,3.3,1.7c0,0.5-0.5,1.2-1.1,1.2s-1.2-0.7-2.3-0.7c-0.9,0-1.4,0.5-1.4,1.2C121,136.9,122.7,137.4,124.1,138.2z"/>
		</g>
	</g>
	<g>
		<g>
			<g>
				<g>
					<g>
						<g>
							<path class="st0" d="M126,9.3v21c-1.2,0.1-2.4,0.3-3.5,0.6V9.3c0-0.5,0.2-0.9,0.5-1.2s0.8-0.5,1.3-0.5
								C125.2,7.5,126,8.3,126,9.3z"/>
						</g>
					</g>
					<g>
						<g>
							<path class="st0" d="M126,39.6v-4.3c-1.8,0.2-3.5,0.6-5.3,1.2l0,0c-2.2,0.7-4.3,1.7-6.2,3c-2,1.3-3.7,2.8-5.3,4.5
								c-4.6,5.1-7.2,11.7-7.2,18.5c0,7.1,2.7,13.8,7.6,19c3,3.2,6.8,5.6,10.9,7c1.8,0.6,3.6,1.1,5.5,1.3v-4.3
								c-11.3-1.7-19.7-11.5-19.7-23C106.3,51.1,114.7,41.3,126,39.6z"/>
						</g>
					</g>
					<g>
						<g>
							<path class="st0" d="M126,50.9v-4.2c-7.4,1.6-12.7,8.2-12.7,15.8s5.3,14.2,12.7,15.8v-4.2c-5.1-1.5-8.7-6.3-8.7-11.7
								C117.3,57.2,120.9,52.4,126,50.9z"/>
						</g>
					</g>
					<g>
						<g>
							<g>
								<path class="st0" d="M115.5,91.9v17.3c0,0.4-0.1,0.8-0.4,1.1l-0.1,0.1c-0.3,0.3-0.8,0.5-1.2,0.5c-1,0-1.7-0.8-1.8-1.7V89.9
									C113.1,90.6,114.3,91.3,115.5,91.9z"/>
							</g>
						</g>
					</g>
					<g>
						<g>
							<path class="st0" d="M126,94.8v20.9c0,0.5-0.2,0.9-0.5,1.3c-0.3,0.3-0.8,0.5-1.2,0.5c-1,0-1.8-0.8-1.8-1.8V94.3
								C123.6,94.5,124.8,94.7,126,94.8z"/>
						</g>
					</g>
					<g>
						<g>
							<g>
								<path class="st0" d="M115.7,16.4v16.8c-1.2,0.6-2.4,1.2-3.5,2V16.4c0-0.2,0-0.2,0.1-0.4c0.1-0.3,0.2-0.6,0.5-0.9
									c0.3-0.3,0.8-0.5,1.2-0.5c0.4,0,0.8,0.1,1.1,0.4C115.5,15.4,115.7,15.9,115.7,16.4z"/>
							</g>
						</g>
					</g>
				</g>
				<g>
					<g>
						<path class="st0" d="M106.7,36.5v-5.1c-9.9,7.3-15.9,18.9-15.9,31.2c0,12.2,5.8,23.7,15.6,31v-5.1c-7.4-6.6-11.7-16-11.7-25.9
							C94.8,52.6,99.1,43,106.7,36.5z"/>
					</g>
				</g>
				<g>
					<g>
						<g>
							<path class="st0" d="M106.7,23.2v-4.4c-16.4,8.6-26.6,25.3-26.6,43.8c0,18.4,10.1,35.1,26.3,43.6v-4.4
								C92.6,93.7,84,78.6,84,62.6C84,46.4,92.7,31.3,106.7,23.2z"/>
						</g>
					</g>
				</g>
			</g>
			<g>
				<g>
					<g>
						<g>
							<path class="st0" d="M31,94.2v21.6c0,0.5-0.2,0.9-0.5,1.2c-0.3,0.3-0.8,0.5-1.3,0.5c-1,0-1.8-0.8-1.8-1.8v-21
								C28.6,94.7,29.8,94.5,31,94.2z"/>
						</g>
					</g>
					<g>
						<g>
							<path class="st0" d="M43.8,43.5c-3-3.2-6.8-5.6-10.9-7c-1.8-0.6-3.6-1.1-5.5-1.3v4.3c11.3,1.7,19.7,11.5,19.7,23
								s-8.5,21.3-19.7,23v4.3c1.8-0.2,3.5-0.6,5.3-1.2l0,0c2.2-0.7,4.3-1.8,6.2-3c1.9-1.3,3.7-2.8,5.3-4.5
								c4.6-5.1,7.2-11.7,7.2-18.5C51.5,55.4,48.7,48.7,43.8,43.5z"/>
						</g>
					</g>
					<g>
						<g>
							<path class="st0" d="M27.5,46.7v4.2c5.1,1.5,8.7,6.3,8.7,11.7s-3.6,10.2-8.7,11.7v4.2c7.4-1.6,12.7-8.2,12.7-15.8
								C40.2,54.9,34.9,48.3,27.5,46.7z"/>
						</g>
					</g>
					<g>
						<g>
							<g>
								<path class="st0" d="M41.5,16v19.2c-1.1-0.7-2.3-1.4-3.5-2V16c0-0.4,0.1-0.8,0.4-1.1l0.1-0.1c0.3-0.3,0.8-0.5,1.2-0.5
									C40.6,14.2,41.4,15,41.5,16z"/>
							</g>
						</g>
					</g>
					<g>
						<g>
							<path class="st0" d="M31,9.4v21.5c-1.1-0.3-2.3-0.4-3.5-0.6V9.4c0-0.5,0.2-0.9,0.5-1.3c0.3-0.3,0.8-0.5,1.2-0.5
								C30.2,7.6,31,8.4,31,9.4z"/>
						</g>
					</g>
					<g>
						<g>
							<g>
								<path class="st0" d="M41.2,89.8v18.8c0,0.2,0,0.2-0.1,0.4c-0.1,0.3-0.2,0.6-0.5,0.9c-0.6,0.6-1.6,0.7-2.4,0.1
									c-0.4-0.3-0.6-0.8-0.6-1.3V91.8C38.9,91.2,40.1,90.6,41.2,89.8z"/>
							</g>
						</g>
					</g>
				</g>
				<g>
					<g>
						<path class="st0" d="M47,31.5v5.1c7.4,6.6,11.7,16,11.7,25.9c0,10-4.3,19.5-11.9,26.1v5.1c9.9-7.3,15.9-18.9,15.9-31.2
							C62.6,50.3,56.8,38.8,47,31.5z"/>
					</g>
				</g>
				<g>
					<g>
						<g>
							<path class="st0" d="M47,18.9v4.4c13.9,8.2,22.5,23.2,22.5,39.3c0,16.2-8.7,31.3-22.7,39.4v4.4C63.2,97.7,73.3,81,73.3,62.5
								C73.3,44.1,63.2,27.4,47,18.9z"/>
						</g>
					</g>
				</g>
			</g>
		</g>
	</g>
</g>
</svg>
